<svg width="100" height="100" viewBox="0 0 100 100" fill="none" xmlns="http://www.w3.org/2000/svg">
<circle cx="50" cy="50" r="50" fill="#B3A7F7"/>
<path d="M47.1864 27.6035C48.1529 24.9917 51.8471 24.9917 52.8136 27.6035L57.624 40.6036C57.9279 41.4247 58.5753 42.0721 59.3964 42.376L72.3965 47.1864C75.0083 48.1529 75.0083 51.8471 72.3965 52.8136L59.3964 57.624C58.5753 57.9279 57.9279 58.5753 57.624 59.3964L52.8136 72.3965C51.8471 75.0083 48.1529 75.0083 47.1864 72.3965L42.376 59.3964C42.0721 58.5753 41.4247 57.9279 40.6036 57.624L27.6035 52.8136C24.9917 51.8471 24.9917 48.1529 27.6035 47.1864L40.6036 42.376C41.4247 42.0721 42.0721 41.4247 42.376 40.6036L47.1864 27.6035Z" fill="white"/>
</svg>
