<svg width="35" height="28" viewBox="0 0 35 28" fill="none" xmlns="http://www.w3.org/2000/svg">
<path d="M26.9611 27.866C24.6371 27.866 22.7751 27.138 21.3751 25.682C19.9751 24.198 19.2751 22.182 19.2751 19.634C19.2751 16.554 20.2831 13.32 22.2991 9.932C24.3431 6.516 27.1291 3.352 30.6571 0.439997L33.9331 3.212C33.2611 3.828 32.5611 4.724 31.8331 5.9C31.1331 7.048 30.5031 8.28 29.9431 9.596C29.4111 10.884 29.0611 12.088 28.8931 13.208C30.6851 13.628 32.0991 14.482 33.1351 15.77C34.1711 17.058 34.6891 18.598 34.6891 20.39C34.6891 22.574 33.9751 24.366 32.5471 25.766C31.1191 27.166 29.2571 27.866 26.9611 27.866ZM8.01909 27.866C5.69509 27.866 3.83309 27.138 2.43309 25.682C1.06109 24.198 0.375094 22.182 0.375094 19.634C0.375094 16.554 1.38309 13.32 3.39909 9.932C5.41509 6.516 8.18709 3.352 11.7151 0.439997L15.0331 3.212C14.3611 3.828 13.6611 4.724 12.9331 5.9C12.2331 7.048 11.6031 8.28 11.0431 9.596C10.5111 10.884 10.1611 12.088 9.99309 13.208C11.7851 13.628 13.1991 14.482 14.2351 15.77C15.2711 17.058 15.7891 18.598 15.7891 20.39C15.7891 22.574 15.0611 24.366 13.6051 25.766C12.1771 27.166 10.3151 27.866 8.01909 27.866Z" fill="#EB5C34"/>
</svg>
