<svg width="257" height="45" viewBox="0 0 257 45" fill="none" xmlns="http://www.w3.org/2000/svg">
<rect x="29.0472" y="22.0309" width="5.59001" height="23.2917" rx="2.79501" transform="rotate(45 29.0472 22.0309)" fill="white"/>
<rect y="25.9836" width="5.59001" height="23.2917" rx="2.79501" transform="rotate(-45 0 25.9836)" fill="white"/>
<circle cx="16.6143" cy="12.7914" r="8.46221" stroke="white" stroke-width="4.65834"/>
<rect x="15.8384" y="32.2792" width="1.3975" height="0.931669" fill="#C4C4C4"/>
<path d="M51.762 33.2267L39.306 3.52668H45.894L54.048 24.4607L62.22 3.52668H68.79L56.334 33.2267H51.762ZM72.3338 33.2267V14.7947H77.8598V33.2267H72.3338ZM75.1058 10.9607C74.5058 10.9607 73.9538 10.8167 73.4498 10.5287C72.9578 10.2287 72.5618 9.82668 72.2618 9.32268C71.9618 8.81868 71.8118 8.26668 71.8118 7.66668C71.8118 7.06668 71.9618 6.52068 72.2618 6.02868C72.5618 5.53668 72.9578 5.14668 73.4498 4.85868C73.9538 4.55868 74.5058 4.40868 75.1058 4.40868C75.7058 4.40868 76.2518 4.55868 76.7438 4.85868C77.2358 5.14668 77.6258 5.53668 77.9138 6.02868C78.2138 6.52068 78.3638 7.06668 78.3638 7.66668C78.3638 8.26668 78.2138 8.81868 77.9138 9.32268C77.6258 9.82668 77.2358 10.2287 76.7438 10.5287C76.2518 10.8167 75.7058 10.9607 75.1058 10.9607ZM89.5952 33.8027C88.0352 33.8027 86.6372 33.5567 85.4012 33.0647C84.1772 32.5727 83.1572 31.8527 82.3412 30.9047L84.6632 27.1967C85.4312 28.0127 86.2352 28.6367 87.0752 29.0687C87.9152 29.5007 88.7552 29.7167 89.5952 29.7167C90.0632 29.7167 90.4652 29.6387 90.8012 29.4827C91.1492 29.3267 91.4192 29.1047 91.6112 28.8167C91.8152 28.5167 91.9172 28.1567 91.9172 27.7367C91.9172 27.2567 91.7792 26.8787 91.5032 26.6027C91.2392 26.3267 90.8312 26.0747 90.2792 25.8467C89.7272 25.6067 89.0132 25.3067 88.1372 24.9467C87.3932 24.6347 86.6792 24.2807 85.9952 23.8847C85.3112 23.4887 84.7532 22.9847 84.3212 22.3727C83.9012 21.7607 83.6912 20.9867 83.6912 20.0507C83.6912 18.9107 84.0092 17.9087 84.6452 17.0447C85.2812 16.1687 86.1572 15.4847 87.2732 14.9927C88.4012 14.5007 89.6972 14.2547 91.1612 14.2547C92.0732 14.2547 93.0272 14.3927 94.0232 14.6687C95.0312 14.9447 96.1052 15.3647 97.2452 15.9287L95.3552 19.4747C93.8072 18.4787 92.4212 17.9807 91.1972 17.9807C90.5132 17.9807 89.9672 18.1307 89.5592 18.4307C89.1512 18.7307 88.9472 19.1087 88.9472 19.5647C88.9472 19.9967 89.1572 20.3747 89.5772 20.6987C90.0092 21.0107 90.5312 21.2927 91.1432 21.5447C91.7672 21.7847 92.3612 22.0067 92.9252 22.2107C93.8492 22.5467 94.6652 22.9187 95.3732 23.3267C96.0932 23.7347 96.6572 24.2687 97.0652 24.9287C97.4732 25.5767 97.6772 26.4467 97.6772 27.5387C97.6772 28.8707 97.3532 30.0047 96.7052 30.9407C96.0692 31.8647 95.1452 32.5727 93.9332 33.0647C92.7332 33.5567 91.2872 33.8027 89.5952 33.8027ZM102.779 33.2267V14.7947H108.305V33.2267H102.779ZM105.551 10.9607C104.951 10.9607 104.399 10.8167 103.895 10.5287C103.403 10.2287 103.007 9.82668 102.707 9.32268C102.407 8.81868 102.257 8.26668 102.257 7.66668C102.257 7.06668 102.407 6.52068 102.707 6.02868C103.007 5.53668 103.403 5.14668 103.895 4.85868C104.399 4.55868 104.951 4.40868 105.551 4.40868C106.151 4.40868 106.697 4.55868 107.189 4.85868C107.681 5.14668 108.071 5.53668 108.359 6.02868C108.659 6.52068 108.809 7.06668 108.809 7.66668C108.809 8.26668 108.659 8.81868 108.359 9.32268C108.071 9.82668 107.681 10.2287 107.189 10.5287C106.697 10.8167 106.151 10.9607 105.551 10.9607ZM124.001 33.8027C121.973 33.8027 120.143 33.3887 118.511 32.5607C116.879 31.7207 115.583 30.5687 114.623 29.1047C113.663 27.6287 113.183 25.9307 113.183 24.0107C113.183 22.0907 113.657 20.3987 114.605 18.9347C115.565 17.4587 116.861 16.3067 118.493 15.4787C120.137 14.6387 121.973 14.2187 124.001 14.2187C126.041 14.2187 127.877 14.6387 129.509 15.4787C131.141 16.3067 132.431 17.4587 133.379 18.9347C134.339 20.3987 134.819 22.0907 134.819 24.0107C134.819 25.9307 134.339 27.6287 133.379 29.1047C132.431 30.5687 131.141 31.7207 129.509 32.5607C127.877 33.3887 126.041 33.8027 124.001 33.8027ZM124.019 29.0867C124.955 29.0867 125.807 28.8707 126.575 28.4387C127.343 28.0067 127.949 27.4127 128.393 26.6567C128.837 25.8887 129.059 25.0067 129.059 24.0107C129.059 23.0147 128.837 22.1387 128.393 21.3827C127.949 20.6147 127.343 20.0147 126.575 19.5827C125.807 19.1507 124.955 18.9347 124.019 18.9347C123.071 18.9347 122.213 19.1507 121.445 19.5827C120.689 20.0147 120.089 20.6147 119.645 21.3827C119.201 22.1387 118.979 23.0147 118.979 24.0107C118.979 25.0067 119.201 25.8887 119.645 26.6567C120.089 27.4127 120.689 28.0067 121.445 28.4387C122.213 28.8707 123.071 29.0867 124.019 29.0867ZM144.791 33.8027C143.231 33.8027 141.833 33.5567 140.597 33.0647C139.373 32.5727 138.353 31.8527 137.537 30.9047L139.859 27.1967C140.627 28.0127 141.431 28.6367 142.271 29.0687C143.111 29.5007 143.951 29.7167 144.791 29.7167C145.259 29.7167 145.661 29.6387 145.997 29.4827C146.345 29.3267 146.615 29.1047 146.807 28.8167C147.011 28.5167 147.113 28.1567 147.113 27.7367C147.113 27.2567 146.975 26.8787 146.699 26.6027C146.435 26.3267 146.027 26.0747 145.475 25.8467C144.923 25.6067 144.209 25.3067 143.333 24.9467C142.589 24.6347 141.875 24.2807 141.191 23.8847C140.507 23.4887 139.949 22.9847 139.517 22.3727C139.097 21.7607 138.887 20.9867 138.887 20.0507C138.887 18.9107 139.205 17.9087 139.841 17.0447C140.477 16.1687 141.353 15.4847 142.469 14.9927C143.597 14.5007 144.893 14.2547 146.357 14.2547C147.269 14.2547 148.223 14.3927 149.219 14.6687C150.227 14.9447 151.301 15.3647 152.441 15.9287L150.551 19.4747C149.003 18.4787 147.617 17.9807 146.393 17.9807C145.709 17.9807 145.163 18.1307 144.755 18.4307C144.347 18.7307 144.143 19.1087 144.143 19.5647C144.143 19.9967 144.353 20.3747 144.773 20.6987C145.205 21.0107 145.727 21.2927 146.339 21.5447C146.963 21.7847 147.557 22.0067 148.121 22.2107C149.045 22.5467 149.861 22.9187 150.569 23.3267C151.289 23.7347 151.853 24.2687 152.261 24.9287C152.669 25.5767 152.873 26.4467 152.873 27.5387C152.873 28.8707 152.549 30.0047 151.901 30.9407C151.265 31.8647 150.341 32.5727 149.129 33.0647C147.929 33.5567 146.483 33.8027 144.791 33.8027ZM168.488 33.2267V3.52668H174.32V28.1147H185.048V33.2267H168.488ZM196.686 33.8027C194.994 33.8027 193.452 33.3827 192.06 32.5427C190.68 31.6907 189.582 30.5267 188.766 29.0507C187.962 27.5627 187.56 25.8707 187.56 23.9747C187.56 22.1267 187.95 20.4707 188.73 19.0067C189.51 17.5307 190.584 16.3667 191.952 15.5147C193.332 14.6507 194.91 14.2187 196.686 14.2187C197.994 14.2187 199.212 14.4707 200.34 14.9747C201.48 15.4667 202.41 16.1567 203.13 17.0447V14.7947H208.656V33.2267H203.13V30.7967C202.29 31.7687 201.324 32.5127 200.232 33.0287C199.14 33.5447 197.958 33.8027 196.686 33.8027ZM198.324 29.1047C199.284 29.1047 200.136 28.8887 200.88 28.4567C201.624 28.0127 202.206 27.4067 202.626 26.6387C203.046 25.8707 203.256 24.9947 203.256 24.0107C203.256 23.0147 203.04 22.1387 202.608 21.3827C202.188 20.6147 201.606 20.0147 200.862 19.5827C200.13 19.1387 199.284 18.9167 198.324 18.9167C197.376 18.9167 196.53 19.1387 195.786 19.5827C195.042 20.0147 194.454 20.6147 194.022 21.3827C193.59 22.1507 193.374 23.0267 193.374 24.0107C193.374 24.9947 193.584 25.8707 194.004 26.6387C194.436 27.4067 195.024 28.0127 195.768 28.4567C196.512 28.8887 197.364 29.1047 198.324 29.1047ZM227.162 33.8027C225.89 33.8027 224.696 33.5387 223.58 33.0107C222.464 32.4827 221.498 31.7447 220.682 30.7967V33.2267H215.156V2.26668H220.682V17.0447C221.414 16.1567 222.332 15.4667 223.436 14.9747C224.54 14.4707 225.734 14.2187 227.018 14.2187C228.794 14.2187 230.378 14.6507 231.77 15.5147C233.162 16.3667 234.254 17.5307 235.046 19.0067C235.838 20.4707 236.234 22.1387 236.234 24.0107C236.234 25.9187 235.826 27.6107 235.01 29.0867C234.194 30.5627 233.096 31.7207 231.716 32.5607C230.348 33.3887 228.83 33.8027 227.162 33.8027ZM225.506 29.1047C226.478 29.1047 227.33 28.8887 228.062 28.4567C228.794 28.0127 229.37 27.4127 229.79 26.6567C230.21 25.8887 230.42 25.0187 230.42 24.0467C230.42 23.0627 230.204 22.1867 229.772 21.4187C229.34 20.6387 228.758 20.0267 228.026 19.5827C227.294 19.1387 226.454 18.9167 225.506 18.9167C224.558 18.9167 223.706 19.1387 222.95 19.5827C222.206 20.0267 221.618 20.6327 221.186 21.4007C220.754 22.1687 220.538 23.0507 220.538 24.0467C220.538 25.0187 220.748 25.8887 221.168 26.6567C221.6 27.4127 222.188 28.0127 222.932 28.4567C223.688 28.8887 224.546 29.1047 225.506 29.1047ZM246.357 33.8027C244.797 33.8027 243.399 33.5567 242.163 33.0647C240.939 32.5727 239.919 31.8527 239.103 30.9047L241.425 27.1967C242.193 28.0127 242.997 28.6367 243.837 29.0687C244.677 29.5007 245.517 29.7167 246.357 29.7167C246.825 29.7167 247.227 29.6387 247.563 29.4827C247.911 29.3267 248.181 29.1047 248.373 28.8167C248.577 28.5167 248.679 28.1567 248.679 27.7367C248.679 27.2567 248.541 26.8787 248.265 26.6027C248.001 26.3267 247.593 26.0747 247.041 25.8467C246.489 25.6067 245.775 25.3067 244.899 24.9467C244.155 24.6347 243.441 24.2807 242.757 23.8847C242.073 23.4887 241.515 22.9847 241.083 22.3727C240.663 21.7607 240.453 20.9867 240.453 20.0507C240.453 18.9107 240.771 17.9087 241.407 17.0447C242.043 16.1687 242.919 15.4847 244.035 14.9927C245.163 14.5007 246.459 14.2547 247.923 14.2547C248.835 14.2547 249.789 14.3927 250.785 14.6687C251.793 14.9447 252.867 15.3647 254.007 15.9287L252.117 19.4747C250.569 18.4787 249.183 17.9807 247.959 17.9807C247.275 17.9807 246.729 18.1307 246.321 18.4307C245.913 18.7307 245.709 19.1087 245.709 19.5647C245.709 19.9967 245.919 20.3747 246.339 20.6987C246.771 21.0107 247.293 21.2927 247.905 21.5447C248.529 21.7847 249.123 22.0067 249.687 22.2107C250.611 22.5467 251.427 22.9187 252.135 23.3267C252.855 23.7347 253.419 24.2687 253.827 24.9287C254.235 25.5767 254.439 26.4467 254.439 27.5387C254.439 28.8707 254.115 30.0047 253.467 30.9407C252.831 31.8647 251.907 32.5727 250.695 33.0647C249.495 33.5567 248.049 33.8027 246.357 33.8027Z" fill="white"/>
</svg>
