<svg width="250" height="250" viewBox="0 0 250 250" fill="none" xmlns="http://www.w3.org/2000/svg">
<rect x="0.5" y="0.5" width="249" height="249" rx="19.5" fill="white" stroke="#C1C8E4"/>
<path d="M125 187.5C90.5625 187.5 62.5 159.438 62.5 125C62.5 90.5625 90.5625 62.5 125 62.5C159.438 62.5 187.5 87.75 187.5 118.75C187.5 139.437 170.687 156.25 150 156.25H138.937C137.187 156.25 135.812 157.625 135.812 159.375C135.812 160.125 136.125 160.812 136.625 161.437C139.187 164.375 140.625 168.062 140.625 171.875C140.625 180.5 133.625 187.5 125 187.5ZM125 75C97.4375 75 75 97.4375 75 125C75 152.562 97.4375 175 125 175C126.75 175 128.125 173.625 128.125 171.875C128.125 170.875 127.625 170.125 127.25 169.687C124.687 166.812 123.312 163.125 123.312 159.375C123.312 150.75 130.312 143.75 138.937 143.75H150C163.813 143.75 175 132.563 175 118.75C175 94.625 152.562 75 125 75Z" fill="black"/>
<path d="M90.625 131.25C95.8027 131.25 100 127.053 100 121.875C100 116.697 95.8027 112.5 90.625 112.5C85.4473 112.5 81.25 116.697 81.25 121.875C81.25 127.053 85.4473 131.25 90.625 131.25Z" fill="black"/>
<path d="M109.375 106.25C114.553 106.25 118.75 102.053 118.75 96.875C118.75 91.6973 114.553 87.5 109.375 87.5C104.197 87.5 100 91.6973 100 96.875C100 102.053 104.197 106.25 109.375 106.25Z" fill="black"/>
<path d="M140.625 106.25C145.803 106.25 150 102.053 150 96.875C150 91.6973 145.803 87.5 140.625 87.5C135.447 87.5 131.25 91.6973 131.25 96.875C131.25 102.053 135.447 106.25 140.625 106.25Z" fill="black"/>
<path d="M159.375 131.25C164.553 131.25 168.75 127.053 168.75 121.875C168.75 116.697 164.553 112.5 159.375 112.5C154.197 112.5 150 116.697 150 121.875C150 127.053 154.197 131.25 159.375 131.25Z" fill="black"/>
</svg>
