<svg width="250" height="250" viewBox="0 0 250 250" fill="none" xmlns="http://www.w3.org/2000/svg">
<path d="M0 20C0 8.9543 8.9543 0 20 0H230C241.046 0 250 8.9543 250 20V230C250 241.046 241.046 250 230 250H20C8.9543 250 0 241.046 0 230V20Z" fill="#8860D0"/>
<circle cx="125" cy="125" r="60" fill="white"/>
<circle cx="125" cy="102" r="20" fill="#8860D0"/>
<path d="M150 162C155.523 162 160.138 157.434 158.581 152.135C158.23 150.94 157.814 149.762 157.336 148.606C155.577 144.36 152.999 140.501 149.749 137.251C146.499 134.001 142.64 131.423 138.394 129.664C134.148 127.905 129.596 127 125 127C120.404 127 115.852 127.905 111.606 129.664C107.36 131.423 103.501 134.001 100.251 137.251C97.0012 140.501 94.4231 144.36 92.6642 148.606C92.1855 149.762 91.7701 150.94 91.4189 152.135C89.8623 157.434 94.4772 162 100 162L125 162H150Z" fill="#8860D0"/>
</svg>
