<svg width="250" height="250" viewBox="0 0 250 250" fill="none" xmlns="http://www.w3.org/2000/svg">
<path d="M0 20C0 8.9543 8.9543 0 20 0H230C241.046 0 250 8.9543 250 20V230C250 241.046 241.046 250 230 250H20C8.9543 250 0 241.046 0 230V20Z" fill="#8860D0"/>
<rect x="165" y="92" width="20" height="85" rx="10" fill="white"/>
<rect x="120" y="92" width="65" height="20" rx="10" fill="white"/>
<rect x="115.142" y="73" width="40" height="20" rx="10" transform="rotate(45 115.142 73)" fill="white"/>
<rect x="65" y="77" width="60" height="20" rx="10" fill="white"/>
<rect x="65" y="157" width="120" height="20" rx="10" fill="white"/>
<rect x="65" y="77" width="20" height="100" rx="10" fill="white"/>
<rect x="75" y="105" width="96" height="62" fill="white"/>
<rect x="75" y="94" width="64" height="25" fill="white"/>
<rect x="120" y="107" width="10" height="50" rx="5" fill="#8860D0"/>
<rect x="118" y="112.071" width="10" height="30" rx="5" transform="rotate(-45 118 112.071)" fill="#8860D0"/>
<rect x="125.213" y="105" width="10" height="30" rx="5" transform="rotate(45 125.213 105)" fill="#8860D0"/>
</svg>
