<svg width="250" height="250" viewBox="0 0 250 250" fill="none" xmlns="http://www.w3.org/2000/svg">
<rect x="0.5" y="0.5" width="249" height="249" rx="19.5" fill="white" stroke="#C1C8E4"/>
<path d="M175 87.5H125L112.5 75H75C68.125 75 62.5625 80.625 62.5625 87.5L62.5 162.5C62.5 169.375 68.125 175 75 175H175C181.875 175 187.5 169.375 187.5 162.5V100C187.5 93.125 181.875 87.5 175 87.5ZM175 162.5H75V87.5H107.313L119.813 100H175V162.5ZM108.812 140.125L118.75 130.25V156.25H131.25V130.25L141.188 140.188L150 131.313L125.063 106.25L100 131.313L108.812 140.125Z" fill="black"/>
</svg>
