<svg width="450" height="750" viewBox="0 0 450 750" fill="none" xmlns="http://www.w3.org/2000/svg">
<rect width="450" height="750" rx="25" fill="#FF8A00"/>
<path d="M252.268 107.853C253.809 103.341 260.191 103.341 261.732 107.853L269.223 129.784C269.694 131.162 270.742 132.267 272.094 132.809L293.423 141.359C297.609 143.037 297.609 148.963 293.423 150.641L272.094 159.191C270.742 159.733 269.694 160.838 269.223 162.216L261.732 184.147C260.191 188.659 253.809 188.659 252.268 184.147L244.777 162.216C244.306 160.838 243.258 159.733 241.906 159.191L220.577 150.641C216.391 148.963 216.391 143.037 220.577 141.359L241.906 132.809C243.258 132.267 244.306 131.162 244.777 129.784L252.268 107.853Z" fill="white"/>
<circle cx="225" cy="515" r="130" fill="white"/>
<path d="M0 498H450V725C450 738.807 438.807 750 425 750H25C11.1929 750 0 738.807 0 725V498Z" fill="#8860D0"/>
<path d="M348.268 55.8525C349.809 51.3408 356.191 51.3407 357.732 55.8525L365.223 77.7841C365.694 79.1625 366.742 80.267 368.094 80.809L389.423 89.359C393.609 91.0371 393.609 96.9629 389.423 98.641L368.094 107.191C366.742 107.733 365.694 108.838 365.223 110.216L357.732 132.147C356.191 136.659 349.809 136.659 348.268 132.147L340.777 110.216C340.306 108.838 339.258 107.733 337.906 107.191L316.577 98.641C312.391 96.9629 312.391 91.0371 316.577 89.359L337.906 80.809C339.258 80.267 340.306 79.1625 340.777 77.7841L348.268 55.8525Z" fill="white"/>
</svg>
