<svg width="150" height="150" viewBox="0 0 150 150" fill="none" xmlns="http://www.w3.org/2000/svg">
<rect width="150" height="150" rx="20" fill="#5AB9EA"/>
<path d="M41.6667 79.1667C46.25 79.1667 50 75.4167 50 70.8333C50 66.25 46.25 62.5 41.6667 62.5C37.0833 62.5 33.3333 66.25 33.3333 70.8333C33.3333 75.4167 37.0833 79.1667 41.6667 79.1667ZM46.375 83.75C44.8333 83.5 43.2917 83.3333 41.6667 83.3333C37.5417 83.3333 33.625 84.2083 30.0833 85.75C27 87.0833 25 90.0833 25 93.4583V100H43.75V93.2917C43.75 89.8333 44.7083 86.5833 46.375 83.75ZM108.333 79.1667C112.917 79.1667 116.667 75.4167 116.667 70.8333C116.667 66.25 112.917 62.5 108.333 62.5C103.75 62.5 100 66.25 100 70.8333C100 75.4167 103.75 79.1667 108.333 79.1667ZM125 93.4583C125 90.0833 123 87.0833 119.917 85.75C116.375 84.2083 112.458 83.3333 108.333 83.3333C106.708 83.3333 105.167 83.5 103.625 83.75C105.292 86.5833 106.25 89.8333 106.25 93.2917V100H125V93.4583ZM92.6667 81.875C87.7917 79.7083 81.7917 78.125 75 78.125C68.2083 78.125 62.2083 79.75 57.3333 81.875C52.8333 83.875 50 88.375 50 93.2917V100H100V93.2917C100 88.375 97.1667 83.875 92.6667 81.875ZM58.625 91.6667C59 90.7083 59.1667 90.0417 62.4167 88.7917C66.4583 87.2083 70.7083 86.4583 75 86.4583C79.2917 86.4583 83.5417 87.2083 87.5833 88.7917C90.7917 90.0417 90.9583 90.7083 91.375 91.6667H58.625ZM75 58.3333C77.2917 58.3333 79.1667 60.2083 79.1667 62.5C79.1667 64.7917 77.2917 66.6667 75 66.6667C72.7083 66.6667 70.8333 64.7917 70.8333 62.5C70.8333 60.2083 72.7083 58.3333 75 58.3333ZM75 50C68.0833 50 62.5 55.5833 62.5 62.5C62.5 69.4167 68.0833 75 75 75C81.9167 75 87.5 69.4167 87.5 62.5C87.5 55.5833 81.9167 50 75 50Z" fill="white"/>
</svg>
