<svg width="150" height="150" viewBox="0 0 150 150" fill="none" xmlns="http://www.w3.org/2000/svg">
<rect width="150" height="150" rx="20" fill="#C060D0"/>
<path d="M75 37.5C73.0833 37.5 71.125 37.6667 69.1667 38.0833C57.6667 40.2917 48.5 49.5833 46.3333 61.0833C44.3333 71.9583 48.3333 81.9583 55.5833 88.4167C57.375 90 58.3333 92.2083 58.3333 94.5417V104.167C58.3333 108.75 62.0833 112.5 66.6667 112.5H67.8333C69.2917 115 71.9167 116.667 75 116.667C78.0833 116.667 80.75 115 82.1667 112.5H83.3334C87.9167 112.5 91.6667 108.75 91.6667 104.167V94.5417C91.6667 92.25 92.5833 90 94.3333 88.4583C100.375 83.125 104.167 75.3333 104.167 66.6667C104.167 50.5417 91.125 37.5 75 37.5ZM83.3334 95.8333H66.6667V91.6667H83.3334V95.8333ZM66.6667 104.167V100H83.3334V104.167H66.6667ZM88.7917 82.25C88.4167 82.5833 88.125 83 87.7917 83.3333H62.1667C61.8333 82.9583 61.5417 82.5417 61.1667 82.2083C55.6667 77.2917 53.2083 69.9583 54.5417 62.625C56.0417 54.5417 62.7083 47.8333 70.75 46.25C72.1667 45.9583 73.5833 45.8333 75 45.8333C86.5 45.8333 95.8334 55.1667 95.8334 66.6667C95.8334 72.625 93.2917 78.2917 88.7917 82.25Z" fill="white"/>
<path d="M77.0834 70.8333H72.9167V83.3333H77.0834V70.8333Z" fill="white"/>
<path d="M68.248 61.9738L65.3018 64.9201L74.1405 73.7588L77.0868 70.8126L68.248 61.9738Z" fill="white"/>
<path d="M72.9209 70.8549L75.8672 73.8012L84.7059 64.9624L81.7597 62.0162L72.9209 70.8549Z" fill="white"/>
</svg>
