<svg width="200" height="200" viewBox="0 0 200 200" fill="none" xmlns="http://www.w3.org/2000/svg">
<rect x="0.5" y="0.5" width="199" height="199" rx="19.5" fill="white" stroke="#C1C8E4"/>
<path d="M96.1958 36.7082C97.3932 33.023 102.607 33.023 103.804 36.7082L115.94 74.0598C116.476 75.7079 118.012 76.8237 119.745 76.8237H159.019C162.893 76.8237 164.505 81.7822 161.37 84.0598L129.596 107.144C128.195 108.163 127.608 109.968 128.143 111.616L140.28 148.968C141.477 152.653 137.259 155.718 134.124 153.44L102.351 130.356C100.949 129.337 99.0508 129.337 97.6489 130.356L65.8757 153.44C62.7408 155.718 58.5229 152.653 59.7203 148.968L71.8566 111.616C72.3921 109.968 71.8055 108.163 70.4035 107.144L38.6303 84.0598C35.4955 81.7822 37.1066 76.8237 40.9815 76.8237H80.2553C81.9882 76.8237 83.524 75.7079 84.0595 74.0598L96.1958 36.7082Z" fill="#8860D0"/>
</svg>
