<svg width="180" height="90" viewBox="0 0 180 90" fill="none" xmlns="http://www.w3.org/2000/svg">
<rect width="180" height="90" rx="15" fill="#5680E9"/>
<path d="M14.368 22.96V19.972H21.136V46H17.824V22.96H14.368ZM26.7633 32.716C26.7633 28.588 27.4353 25.372 28.7793 23.068C30.1233 20.74 32.4753 19.576 35.8353 19.576C39.1713 19.576 41.5113 20.74 42.8553 23.068C44.1992 25.372 44.8712 28.588 44.8712 32.716C44.8712 36.916 44.1992 40.18 42.8553 42.508C41.5113 44.836 39.1713 46 35.8353 46C32.4753 46 30.1233 44.836 28.7793 42.508C27.4353 40.18 26.7633 36.916 26.7633 32.716ZM41.6313 32.716C41.6313 30.628 41.4873 28.864 41.1993 27.424C40.9353 25.96 40.3713 24.784 39.5073 23.896C38.6673 23.008 37.4433 22.564 35.8353 22.564C34.2033 22.564 32.9553 23.008 32.0913 23.896C31.2513 24.784 30.6873 25.96 30.3993 27.424C30.1353 28.864 30.0033 30.628 30.0033 32.716C30.0033 34.876 30.1353 36.688 30.3993 38.152C30.6873 39.616 31.2513 40.792 32.0913 41.68C32.9553 42.568 34.2033 43.012 35.8353 43.012C37.4433 43.012 38.6673 42.568 39.5073 41.68C40.3713 40.792 40.9353 39.616 41.1993 38.152C41.4873 36.688 41.6313 34.876 41.6313 32.716ZM49.3687 32.716C49.3687 28.588 50.0407 25.372 51.3847 23.068C52.7287 20.74 55.0807 19.576 58.4407 19.576C61.7767 19.576 64.1167 20.74 65.4607 23.068C66.8047 25.372 67.4767 28.588 67.4767 32.716C67.4767 36.916 66.8047 40.18 65.4607 42.508C64.1167 44.836 61.7767 46 58.4407 46C55.0807 46 52.7287 44.836 51.3847 42.508C50.0407 40.18 49.3687 36.916 49.3687 32.716ZM64.2367 32.716C64.2367 30.628 64.0927 28.864 63.8047 27.424C63.5407 25.96 62.9767 24.784 62.1127 23.896C61.2727 23.008 60.0487 22.564 58.4407 22.564C56.8087 22.564 55.5607 23.008 54.6967 23.896C53.8567 24.784 53.2927 25.96 53.0047 27.424C52.7407 28.864 52.6087 30.628 52.6087 32.716C52.6087 34.876 52.7407 36.688 53.0047 38.152C53.2927 39.616 53.8567 40.792 54.6967 41.68C55.5607 42.568 56.8087 43.012 58.4407 43.012C60.0487 43.012 61.2727 42.568 62.1127 41.68C62.9767 40.792 63.5407 39.616 63.8047 38.152C64.0927 36.688 64.2367 34.876 64.2367 32.716ZM91.2342 34.228H83.5662V42.004H80.5062V34.228H72.8742V31.456H80.5062V23.644H83.5662V31.456H91.2342V34.228ZM19.88 64.84C21.2133 64.84 22.2933 65.2467 23.12 66.06C23.9467 66.86 24.36 68.02 24.36 69.54V76H22.56V69.8C22.56 68.7067 22.2867 67.8733 21.74 67.3C21.1933 66.7133 20.4467 66.42 19.5 66.42C18.54 66.42 17.7733 66.72 17.2 67.32C16.64 67.92 16.36 68.7933 16.36 69.94V76H14.54V65.04H16.36V66.6C16.72 66.04 17.2067 65.6067 17.82 65.3C18.4467 64.9933 19.1333 64.84 19.88 64.84ZM37.333 70.1C37.333 70.4467 37.313 70.8133 37.273 71.2H28.513C28.5796 72.28 28.9463 73.1267 29.613 73.74C30.293 74.34 31.113 74.64 32.073 74.64C32.8596 74.64 33.513 74.46 34.033 74.1C34.5663 73.7267 34.9396 73.2333 35.153 72.62H37.113C36.8196 73.6733 36.233 74.5333 35.353 75.2C34.473 75.8533 33.3796 76.18 32.073 76.18C31.033 76.18 30.0996 75.9467 29.273 75.48C28.4596 75.0133 27.8196 74.3533 27.353 73.5C26.8863 72.6333 26.653 71.6333 26.653 70.5C26.653 69.3667 26.8796 68.3733 27.333 67.52C27.7863 66.6667 28.4196 66.0133 29.233 65.56C30.0596 65.0933 31.0063 64.86 32.073 64.86C33.113 64.86 34.033 65.0867 34.833 65.54C35.633 65.9933 36.2463 66.62 36.673 67.42C37.113 68.2067 37.333 69.1 37.333 70.1ZM35.453 69.72C35.453 69.0267 35.2996 68.4333 34.993 67.94C34.6863 67.4333 34.2663 67.0533 33.733 66.8C33.213 66.5333 32.633 66.4 31.993 66.4C31.073 66.4 30.2863 66.6933 29.633 67.28C28.993 67.8667 28.6263 68.68 28.533 69.72H35.453ZM54.3353 65.04L50.9153 76H49.0353L46.3953 67.3L43.7553 76H41.8753L38.4353 65.04H40.2953L42.8153 74.24L45.5353 65.04H47.3953L50.0553 74.26L52.5353 65.04H54.3353ZM60.0216 76.18C59.1816 76.18 58.4282 76.04 57.7616 75.76C57.0949 75.4667 56.5682 75.0667 56.1816 74.56C55.7949 74.04 55.5816 73.4467 55.5416 72.78H57.4216C57.4749 73.3267 57.7282 73.7733 58.1816 74.12C58.6482 74.4667 59.2549 74.64 60.0016 74.64C60.6949 74.64 61.2416 74.4867 61.6416 74.18C62.0416 73.8733 62.2416 73.4867 62.2416 73.02C62.2416 72.54 62.0282 72.1867 61.6016 71.96C61.1749 71.72 60.5149 71.4867 59.6216 71.26C58.8082 71.0467 58.1416 70.8333 57.6216 70.62C57.1149 70.3933 56.6749 70.0667 56.3016 69.64C55.9416 69.2 55.7616 68.6267 55.7616 67.92C55.7616 67.36 55.9282 66.8467 56.2616 66.38C56.5949 65.9133 57.0682 65.5467 57.6816 65.28C58.2949 65 58.9949 64.86 59.7816 64.86C60.9949 64.86 61.9749 65.1667 62.7216 65.78C63.4682 66.3933 63.8682 67.2333 63.9216 68.3H62.1016C62.0616 67.7267 61.8282 67.2667 61.4016 66.92C60.9882 66.5733 60.4282 66.4 59.7216 66.4C59.0682 66.4 58.5482 66.54 58.1616 66.82C57.7749 67.1 57.5816 67.4667 57.5816 67.92C57.5816 68.28 57.6949 68.58 57.9216 68.82C58.1616 69.0467 58.4549 69.2333 58.8016 69.38C59.1616 69.5133 59.6549 69.6667 60.2816 69.84C61.0682 70.0533 61.7082 70.2667 62.2016 70.48C62.6949 70.68 63.1149 70.9867 63.4616 71.4C63.8216 71.8133 64.0082 72.3533 64.0216 73.02C64.0216 73.62 63.8549 74.16 63.5216 74.64C63.1882 75.12 62.7149 75.5 62.1016 75.78C61.5016 76.0467 60.8082 76.18 60.0216 76.18ZM85.1028 64.84C85.9561 64.84 86.7161 65.02 87.3828 65.38C88.0495 65.7267 88.5761 66.2533 88.9628 66.96C89.3495 67.6667 89.5428 68.5267 89.5428 69.54V76H87.7428V69.8C87.7428 68.7067 87.4695 67.8733 86.9228 67.3C86.3895 66.7133 85.6628 66.42 84.7428 66.42C83.7961 66.42 83.0428 66.7267 82.4828 67.34C81.9228 67.94 81.6428 68.8133 81.6428 69.96V76H79.8428V69.8C79.8428 68.7067 79.5695 67.8733 79.0228 67.3C78.4895 66.7133 77.7628 66.42 76.8428 66.42C75.8961 66.42 75.1428 66.7267 74.5828 67.34C74.0228 67.94 73.7428 68.8133 73.7428 69.96V76H71.9228V65.04H73.7428V66.62C74.1028 66.0467 74.5828 65.6067 75.1828 65.3C75.7961 64.9933 76.4695 64.84 77.2028 64.84C78.1228 64.84 78.9361 65.0467 79.6428 65.46C80.3495 65.8733 80.8761 66.48 81.2228 67.28C81.5295 66.5067 82.0361 65.9067 82.7428 65.48C83.4495 65.0533 84.2361 64.84 85.1028 64.84ZM102.528 70.1C102.528 70.4467 102.508 70.8133 102.468 71.2H93.7083C93.7749 72.28 94.1416 73.1267 94.8083 73.74C95.4883 74.34 96.3083 74.64 97.2683 74.64C98.0549 74.64 98.7083 74.46 99.2283 74.1C99.7616 73.7267 100.135 73.2333 100.348 72.62H102.308C102.015 73.6733 101.428 74.5333 100.548 75.2C99.6683 75.8533 98.5749 76.18 97.2683 76.18C96.2283 76.18 95.2949 75.9467 94.4683 75.48C93.6549 75.0133 93.0149 74.3533 92.5483 73.5C92.0816 72.6333 91.8483 71.6333 91.8483 70.5C91.8483 69.3667 92.0749 68.3733 92.5283 67.52C92.9816 66.6667 93.6149 66.0133 94.4283 65.56C95.2549 65.0933 96.2016 64.86 97.2683 64.86C98.3083 64.86 99.2283 65.0867 100.028 65.54C100.828 65.9933 101.442 66.62 101.868 67.42C102.308 68.2067 102.528 69.1 102.528 70.1ZM100.648 69.72C100.648 69.0267 100.495 68.4333 100.188 67.94C99.8816 67.4333 99.4616 67.0533 98.9283 66.8C98.4083 66.5333 97.8283 66.4 97.1883 66.4C96.2683 66.4 95.4816 66.6933 94.8283 67.28C94.1883 67.8667 93.8216 68.68 93.7283 69.72H100.648ZM110.271 64.84C111.604 64.84 112.684 65.2467 113.511 66.06C114.337 66.86 114.751 68.02 114.751 69.54V76H112.951V69.8C112.951 68.7067 112.677 67.8733 112.131 67.3C111.584 66.7133 110.837 66.42 109.891 66.42C108.931 66.42 108.164 66.72 107.591 67.32C107.031 67.92 106.751 68.7933 106.751 69.94V76H104.931V65.04H106.751V66.6C107.111 66.04 107.597 65.6067 108.211 65.3C108.837 64.9933 109.524 64.84 110.271 64.84ZM119.944 66.54V73C119.944 73.5333 120.057 73.9133 120.284 74.14C120.51 74.3533 120.904 74.46 121.464 74.46H122.804V76H121.164C120.15 76 119.39 75.7667 118.884 75.3C118.377 74.8333 118.124 74.0667 118.124 73V66.54H116.704V65.04H118.124V62.28H119.944V65.04H122.804V66.54H119.944ZM125.949 63.26C125.602 63.26 125.309 63.14 125.069 62.9C124.829 62.66 124.709 62.3667 124.709 62.02C124.709 61.6733 124.829 61.38 125.069 61.14C125.309 60.9 125.602 60.78 125.949 60.78C126.282 60.78 126.562 60.9 126.789 61.14C127.029 61.38 127.149 61.6733 127.149 62.02C127.149 62.3667 127.029 62.66 126.789 62.9C126.562 63.14 126.282 63.26 125.949 63.26ZM126.829 65.04V76H125.009V65.04H126.829ZM134.711 76.18C133.684 76.18 132.751 75.9467 131.911 75.48C131.084 75.0133 130.431 74.3533 129.951 73.5C129.484 72.6333 129.251 71.6333 129.251 70.5C129.251 69.38 129.491 68.3933 129.971 67.54C130.464 66.6733 131.131 66.0133 131.971 65.56C132.811 65.0933 133.751 64.86 134.791 64.86C135.831 64.86 136.771 65.0933 137.611 65.56C138.451 66.0133 139.111 66.6667 139.591 67.52C140.084 68.3733 140.331 69.3667 140.331 70.5C140.331 71.6333 140.077 72.6333 139.571 73.5C139.077 74.3533 138.404 75.0133 137.551 75.48C136.697 75.9467 135.751 76.18 134.711 76.18ZM134.711 74.58C135.364 74.58 135.977 74.4267 136.551 74.12C137.124 73.8133 137.584 73.3533 137.931 72.74C138.291 72.1267 138.471 71.38 138.471 70.5C138.471 69.62 138.297 68.8733 137.951 68.26C137.604 67.6467 137.151 67.1933 136.591 66.9C136.031 66.5933 135.424 66.44 134.771 66.44C134.104 66.44 133.491 66.5933 132.931 66.9C132.384 67.1933 131.944 67.6467 131.611 68.26C131.277 68.8733 131.111 69.62 131.111 70.5C131.111 71.3933 131.271 72.1467 131.591 72.76C131.924 73.3733 132.364 73.8333 132.911 74.14C133.457 74.4333 134.057 74.58 134.711 74.58ZM148.064 64.84C149.397 64.84 150.477 65.2467 151.304 66.06C152.13 66.86 152.544 68.02 152.544 69.54V76H150.744V69.8C150.744 68.7067 150.47 67.8733 149.924 67.3C149.377 66.7133 148.63 66.42 147.684 66.42C146.724 66.42 145.957 66.72 145.384 67.32C144.824 67.92 144.544 68.7933 144.544 69.94V76H142.724V65.04H144.544V66.6C144.904 66.04 145.39 65.6067 146.004 65.3C146.63 64.9933 147.317 64.84 148.064 64.84ZM159.397 76.18C158.557 76.18 157.803 76.04 157.137 75.76C156.47 75.4667 155.943 75.0667 155.557 74.56C155.17 74.04 154.957 73.4467 154.917 72.78H156.797C156.85 73.3267 157.103 73.7733 157.557 74.12C158.023 74.4667 158.63 74.64 159.377 74.64C160.07 74.64 160.617 74.4867 161.017 74.18C161.417 73.8733 161.617 73.4867 161.617 73.02C161.617 72.54 161.403 72.1867 160.977 71.96C160.55 71.72 159.89 71.4867 158.997 71.26C158.183 71.0467 157.517 70.8333 156.997 70.62C156.49 70.3933 156.05 70.0667 155.677 69.64C155.317 69.2 155.137 68.6267 155.137 67.92C155.137 67.36 155.303 66.8467 155.637 66.38C155.97 65.9133 156.443 65.5467 157.057 65.28C157.67 65 158.37 64.86 159.157 64.86C160.37 64.86 161.35 65.1667 162.097 65.78C162.843 66.3933 163.243 67.2333 163.297 68.3H161.477C161.437 67.7267 161.203 67.2667 160.777 66.92C160.363 66.5733 159.803 66.4 159.097 66.4C158.443 66.4 157.923 66.54 157.537 66.82C157.15 67.1 156.957 67.4667 156.957 67.92C156.957 68.28 157.07 68.58 157.297 68.82C157.537 69.0467 157.83 69.2333 158.177 69.38C158.537 69.5133 159.03 69.6667 159.657 69.84C160.443 70.0533 161.083 70.2667 161.577 70.48C162.07 70.68 162.49 70.9867 162.837 71.4C163.197 71.8133 163.383 72.3533 163.397 73.02C163.397 73.62 163.23 74.16 162.897 74.64C162.563 75.12 162.09 75.5 161.477 75.78C160.877 76.0467 160.183 76.18 159.397 76.18Z" fill="white"/>
</svg>
