<svg width="180" height="90" viewBox="0 0 180 90" fill="none" xmlns="http://www.w3.org/2000/svg">
<rect width="180" height="90" rx="15" fill="#C060D0"/>
<path d="M31.972 39.124C31.972 40.276 31.684 41.38 31.108 42.436C30.532 43.468 29.68 44.332 28.552 45.028C27.448 45.724 26.116 46.12 24.556 46.216V49.132H22.612V46.216C20.428 46.024 18.652 45.328 17.284 44.128C15.916 42.904 15.22 41.356 15.196 39.484H18.688C18.784 40.492 19.156 41.368 19.804 42.112C20.476 42.856 21.412 43.324 22.612 43.516V34.516C21.004 34.108 19.708 33.688 18.724 33.256C17.74 32.824 16.9 32.152 16.204 31.24C15.508 30.328 15.16 29.104 15.16 27.568C15.16 25.624 15.832 24.016 17.176 22.744C18.544 21.472 20.356 20.764 22.612 20.62V17.632H24.556V20.62C26.596 20.788 28.24 21.448 29.488 22.6C30.736 23.728 31.456 25.204 31.648 27.028H28.156C28.036 26.188 27.664 25.432 27.04 24.76C26.416 24.064 25.588 23.608 24.556 23.392V32.176C26.14 32.584 27.424 33.004 28.408 33.436C29.416 33.844 30.256 34.504 30.928 35.416C31.624 36.328 31.972 37.564 31.972 39.124ZM18.508 27.388C18.508 28.564 18.856 29.464 19.552 30.088C20.248 30.712 21.268 31.228 22.612 31.636V23.32C21.364 23.44 20.368 23.848 19.624 24.544C18.88 25.216 18.508 26.164 18.508 27.388ZM24.556 43.552C25.852 43.408 26.86 42.94 27.58 42.148C28.324 41.356 28.696 40.408 28.696 39.304C28.696 38.128 28.336 37.228 27.616 36.604C26.896 35.956 25.876 35.44 24.556 35.056V43.552ZM54.2225 22.816H41.5865V31.024C42.1385 30.256 42.9545 29.632 44.0345 29.152C45.1145 28.648 46.2785 28.396 47.5265 28.396C49.5185 28.396 51.1385 28.816 52.3865 29.656C53.6345 30.472 54.5225 31.54 55.0505 32.86C55.6025 34.156 55.8785 35.536 55.8785 37C55.8785 38.728 55.5545 40.276 54.9065 41.644C54.2585 43.012 53.2625 44.092 51.9185 44.884C50.5985 45.676 48.9545 46.072 46.9865 46.072C44.4665 46.072 42.4265 45.424 40.8665 44.128C39.3065 42.832 38.3585 41.104 38.0225 38.944H41.2265C41.5385 40.312 42.1985 41.38 43.2065 42.148C44.2145 42.916 45.4865 43.3 47.0225 43.3C48.9185 43.3 50.3465 42.736 51.3065 41.608C52.2665 40.456 52.7465 38.944 52.7465 37.072C52.7465 35.2 52.2665 33.76 51.3065 32.752C50.3465 31.72 48.9305 31.204 47.0585 31.204C45.7865 31.204 44.6705 31.516 43.7105 32.14C42.7745 32.74 42.0905 33.568 41.6585 34.624H38.5625V19.936H54.2225V22.816ZM60.232 32.716C60.232 28.588 60.904 25.372 62.248 23.068C63.592 20.74 65.944 19.576 69.304 19.576C72.64 19.576 74.98 20.74 76.324 23.068C77.668 25.372 78.34 28.588 78.34 32.716C78.34 36.916 77.668 40.18 76.324 42.508C74.98 44.836 72.64 46 69.304 46C65.944 46 63.592 44.836 62.248 42.508C60.904 40.18 60.232 36.916 60.232 32.716ZM75.1 32.716C75.1 30.628 74.956 28.864 74.668 27.424C74.404 25.96 73.84 24.784 72.976 23.896C72.136 23.008 70.912 22.564 69.304 22.564C67.672 22.564 66.424 23.008 65.56 23.896C64.72 24.784 64.156 25.96 63.868 27.424C63.604 28.864 63.472 30.628 63.472 32.716C63.472 34.876 63.604 36.688 63.868 38.152C64.156 39.616 64.72 40.792 65.56 41.68C66.424 42.568 67.672 43.012 69.304 43.012C70.912 43.012 72.136 42.568 72.976 41.68C73.84 40.792 74.404 39.616 74.668 38.152C74.956 36.688 75.1 34.876 75.1 32.716ZM94.3935 46L86.6535 37.288V46H83.3775V19.36H86.6535V35.02L94.2495 26.272H98.8215L89.5335 36.1L98.8575 46H94.3935ZM120.625 34.228H112.957V42.004H109.897V34.228H102.265V31.456H109.897V23.644H112.957V31.456H120.625V34.228ZM20.812 63.26C20.4654 63.26 20.172 63.14 19.932 62.9C19.692 62.66 19.572 62.3667 19.572 62.02C19.572 61.6733 19.692 61.38 19.932 61.14C20.172 60.9 20.4654 60.78 20.812 60.78C21.1454 60.78 21.4254 60.9 21.652 61.14C21.892 61.38 22.012 61.6733 22.012 62.02C22.012 62.3667 21.892 62.66 21.652 62.9C21.4254 63.14 21.1454 63.26 20.812 63.26ZM21.692 65.04V76H19.872V65.04H21.692ZM30.1339 64.84C31.4672 64.84 32.5472 65.2467 33.3739 66.06C34.2006 66.86 34.6139 68.02 34.6139 69.54V76H32.8139V69.8C32.8139 68.7067 32.5406 67.8733 31.9939 67.3C31.4472 66.7133 30.7006 66.42 29.7539 66.42C28.7939 66.42 28.0272 66.72 27.4539 67.32C26.8939 67.92 26.6139 68.7933 26.6139 69.94V76H24.7939V65.04H26.6139V66.6C26.9739 66.04 27.4606 65.6067 28.0739 65.3C28.7006 64.9933 29.3872 64.84 30.1339 64.84ZM45.1389 66.54V73C45.1389 73.5333 45.2522 73.9133 45.4789 74.14C45.7056 74.3533 46.0989 74.46 46.6589 74.46H47.9989V76H46.3589C45.3456 76 44.5856 75.7667 44.0789 75.3C43.5722 74.8333 43.3189 74.0667 43.3189 73V66.54H41.8989V65.04H43.3189V62.28H45.1389V65.04H47.9989V66.54H45.1389ZM52.0241 66.82C52.3441 66.1933 52.7974 65.7067 53.3841 65.36C53.9841 65.0133 54.7107 64.84 55.5641 64.84V66.72H55.0841C53.0441 66.72 52.0241 67.8267 52.0241 70.04V76H50.2041V65.04H52.0241V66.82ZM56.985 70.48C56.985 69.36 57.2117 68.38 57.665 67.54C58.1183 66.6867 58.7383 66.0267 59.525 65.56C60.325 65.0933 61.2117 64.86 62.185 64.86C63.145 64.86 63.9783 65.0667 64.685 65.48C65.3917 65.8933 65.9183 66.4133 66.265 67.04V65.04H68.105V76H66.265V73.96C65.905 74.6 65.365 75.1333 64.645 75.56C63.9383 75.9733 63.1117 76.18 62.165 76.18C61.1917 76.18 60.3117 75.94 59.525 75.46C58.7383 74.98 58.1183 74.3067 57.665 73.44C57.2117 72.5733 56.985 71.5867 56.985 70.48ZM66.265 70.5C66.265 69.6733 66.0983 68.9533 65.765 68.34C65.4317 67.7267 64.9783 67.26 64.405 66.94C63.845 66.6067 63.225 66.44 62.545 66.44C61.865 66.44 61.245 66.6 60.685 66.92C60.125 67.24 59.6783 67.7067 59.345 68.32C59.0117 68.9333 58.845 69.6533 58.845 70.48C58.845 71.32 59.0117 72.0533 59.345 72.68C59.6783 73.2933 60.125 73.7667 60.685 74.1C61.245 74.42 61.865 74.58 62.545 74.58C63.225 74.58 63.845 74.42 64.405 74.1C64.9783 73.7667 65.4317 73.2933 65.765 72.68C66.0983 72.0533 66.265 71.3267 66.265 70.5ZM76.5206 64.84C77.854 64.84 78.934 65.2467 79.7606 66.06C80.5873 66.86 81.0006 68.02 81.0006 69.54V76H79.2006V69.8C79.2006 68.7067 78.9273 67.8733 78.3806 67.3C77.834 66.7133 77.0873 66.42 76.1406 66.42C75.1806 66.42 74.414 66.72 73.8406 67.32C73.2806 67.92 73.0006 68.7933 73.0006 69.94V76H71.1806V65.04H73.0006V66.6C73.3606 66.04 73.8473 65.6067 74.4606 65.3C75.0873 64.9933 75.774 64.84 76.5206 64.84ZM87.8536 76.18C87.0136 76.18 86.2603 76.04 85.5936 75.76C84.9269 75.4667 84.4003 75.0667 84.0136 74.56C83.6269 74.04 83.4136 73.4467 83.3736 72.78H85.2536C85.3069 73.3267 85.5603 73.7733 86.0136 74.12C86.4803 74.4667 87.0869 74.64 87.8336 74.64C88.5269 74.64 89.0736 74.4867 89.4736 74.18C89.8736 73.8733 90.0736 73.4867 90.0736 73.02C90.0736 72.54 89.8603 72.1867 89.4336 71.96C89.0069 71.72 88.3469 71.4867 87.4536 71.26C86.6403 71.0467 85.9736 70.8333 85.4536 70.62C84.9469 70.3933 84.5069 70.0667 84.1336 69.64C83.7736 69.2 83.5936 68.6267 83.5936 67.92C83.5936 67.36 83.7603 66.8467 84.0936 66.38C84.4269 65.9133 84.9003 65.5467 85.5136 65.28C86.1269 65 86.8269 64.86 87.6136 64.86C88.8269 64.86 89.8069 65.1667 90.5536 65.78C91.3003 66.3933 91.7003 67.2333 91.7536 68.3H89.9336C89.8936 67.7267 89.6603 67.2667 89.2336 66.92C88.8203 66.5733 88.2603 66.4 87.5536 66.4C86.9003 66.4 86.3803 66.54 85.9936 66.82C85.6069 67.1 85.4136 67.4667 85.4136 67.92C85.4136 68.28 85.5269 68.58 85.7536 68.82C85.9936 69.0467 86.2869 69.2333 86.6336 69.38C86.9936 69.5133 87.4869 69.6667 88.1136 69.84C88.9003 70.0533 89.5403 70.2667 90.0336 70.48C90.5269 70.68 90.9469 70.9867 91.2936 71.4C91.6536 71.8133 91.8403 72.3533 91.8536 73.02C91.8536 73.62 91.6869 74.16 91.3536 74.64C91.0203 75.12 90.5469 75.5 89.9336 75.78C89.3336 76.0467 88.6403 76.18 87.8536 76.18ZM93.7428 70.48C93.7428 69.36 93.9695 68.38 94.4228 67.54C94.8761 66.6867 95.4961 66.0267 96.2828 65.56C97.0828 65.0933 97.9695 64.86 98.9428 64.86C99.9028 64.86 100.736 65.0667 101.443 65.48C102.149 65.8933 102.676 66.4133 103.023 67.04V65.04H104.863V76H103.023V73.96C102.663 74.6 102.123 75.1333 101.403 75.56C100.696 75.9733 99.8695 76.18 98.9228 76.18C97.9495 76.18 97.0695 75.94 96.2828 75.46C95.4961 74.98 94.8761 74.3067 94.4228 73.44C93.9695 72.5733 93.7428 71.5867 93.7428 70.48ZM103.023 70.5C103.023 69.6733 102.856 68.9533 102.523 68.34C102.189 67.7267 101.736 67.26 101.163 66.94C100.603 66.6067 99.9828 66.44 99.3028 66.44C98.6228 66.44 98.0028 66.6 97.4428 66.92C96.8828 67.24 96.4361 67.7067 96.1028 68.32C95.7695 68.9333 95.6028 69.6533 95.6028 70.48C95.6028 71.32 95.7695 72.0533 96.1028 72.68C96.4361 73.2933 96.8828 73.7667 97.4428 74.1C98.0028 74.42 98.6228 74.58 99.3028 74.58C99.9828 74.58 100.603 74.42 101.163 74.1C101.736 73.7667 102.189 73.2933 102.523 72.68C102.856 72.0533 103.023 71.3267 103.023 70.5ZM107.258 70.5C107.258 69.3667 107.485 68.38 107.938 67.54C108.392 66.6867 109.018 66.0267 109.818 65.56C110.632 65.0933 111.558 64.86 112.598 64.86C113.945 64.86 115.052 65.1867 115.918 65.84C116.798 66.4933 117.378 67.4 117.658 68.56H115.698C115.512 67.8933 115.145 67.3667 114.598 66.98C114.065 66.5933 113.398 66.4 112.598 66.4C111.558 66.4 110.718 66.76 110.078 67.48C109.438 68.1867 109.118 69.1933 109.118 70.5C109.118 71.82 109.438 72.84 110.078 73.56C110.718 74.28 111.558 74.64 112.598 74.64C113.398 74.64 114.065 74.4533 114.598 74.08C115.132 73.7067 115.498 73.1733 115.698 72.48H117.658C117.365 73.6 116.778 74.5 115.898 75.18C115.018 75.8467 113.918 76.18 112.598 76.18C111.558 76.18 110.632 75.9467 109.818 75.48C109.018 75.0133 108.392 74.3533 107.938 73.5C107.485 72.6467 107.258 71.6467 107.258 70.5ZM122.307 66.54V73C122.307 73.5333 122.42 73.9133 122.647 74.14C122.874 74.3533 123.267 74.46 123.827 74.46H125.167V76H123.527C122.514 76 121.754 75.7667 121.247 75.3C120.74 74.8333 120.487 74.0667 120.487 73V66.54H119.067V65.04H120.487V62.28H122.307V65.04H125.167V66.54H122.307ZM128.312 63.26C127.965 63.26 127.672 63.14 127.432 62.9C127.192 62.66 127.072 62.3667 127.072 62.02C127.072 61.6733 127.192 61.38 127.432 61.14C127.672 60.9 127.965 60.78 128.312 60.78C128.645 60.78 128.925 60.9 129.152 61.14C129.392 61.38 129.512 61.6733 129.512 62.02C129.512 62.3667 129.392 62.66 129.152 62.9C128.925 63.14 128.645 63.26 128.312 63.26ZM129.192 65.04V76H127.372V65.04H129.192ZM137.074 76.18C136.047 76.18 135.114 75.9467 134.274 75.48C133.447 75.0133 132.794 74.3533 132.314 73.5C131.847 72.6333 131.614 71.6333 131.614 70.5C131.614 69.38 131.854 68.3933 132.334 67.54C132.827 66.6733 133.494 66.0133 134.334 65.56C135.174 65.0933 136.114 64.86 137.154 64.86C138.194 64.86 139.134 65.0933 139.974 65.56C140.814 66.0133 141.474 66.6667 141.954 67.52C142.447 68.3733 142.694 69.3667 142.694 70.5C142.694 71.6333 142.441 72.6333 141.934 73.5C141.441 74.3533 140.767 75.0133 139.914 75.48C139.061 75.9467 138.114 76.18 137.074 76.18ZM137.074 74.58C137.727 74.58 138.341 74.4267 138.914 74.12C139.487 73.8133 139.947 73.3533 140.294 72.74C140.654 72.1267 140.834 71.38 140.834 70.5C140.834 69.62 140.661 68.8733 140.314 68.26C139.967 67.6467 139.514 67.1933 138.954 66.9C138.394 66.5933 137.787 66.44 137.134 66.44C136.467 66.44 135.854 66.5933 135.294 66.9C134.747 67.1933 134.307 67.6467 133.974 68.26C133.641 68.8733 133.474 69.62 133.474 70.5C133.474 71.3933 133.634 72.1467 133.954 72.76C134.287 73.3733 134.727 73.8333 135.274 74.14C135.821 74.4333 136.421 74.58 137.074 74.58ZM150.427 64.84C151.76 64.84 152.84 65.2467 153.667 66.06C154.494 66.86 154.907 68.02 154.907 69.54V76H153.107V69.8C153.107 68.7067 152.834 67.8733 152.287 67.3C151.74 66.7133 150.994 66.42 150.047 66.42C149.087 66.42 148.32 66.72 147.747 67.32C147.187 67.92 146.907 68.7933 146.907 69.94V76H145.087V65.04H146.907V66.6C147.267 66.04 147.754 65.6067 148.367 65.3C148.994 64.9933 149.68 64.84 150.427 64.84ZM161.76 76.18C160.92 76.18 160.167 76.04 159.5 75.76C158.833 75.4667 158.307 75.0667 157.92 74.56C157.533 74.04 157.32 73.4467 157.28 72.78H159.16C159.213 73.3267 159.467 73.7733 159.92 74.12C160.387 74.4667 160.993 74.64 161.74 74.64C162.433 74.64 162.98 74.4867 163.38 74.18C163.78 73.8733 163.98 73.4867 163.98 73.02C163.98 72.54 163.767 72.1867 163.34 71.96C162.913 71.72 162.253 71.4867 161.36 71.26C160.547 71.0467 159.88 70.8333 159.36 70.62C158.853 70.3933 158.413 70.0667 158.04 69.64C157.68 69.2 157.5 68.6267 157.5 67.92C157.5 67.36 157.667 66.8467 158 66.38C158.333 65.9133 158.807 65.5467 159.42 65.28C160.033 65 160.733 64.86 161.52 64.86C162.733 64.86 163.713 65.1667 164.46 65.78C165.207 66.3933 165.607 67.2333 165.66 68.3H163.84C163.8 67.7267 163.567 67.2667 163.14 66.92C162.727 66.5733 162.167 66.4 161.46 66.4C160.807 66.4 160.287 66.54 159.9 66.82C159.513 67.1 159.32 67.4667 159.32 67.92C159.32 68.28 159.433 68.58 159.66 68.82C159.9 69.0467 160.193 69.2333 160.54 69.38C160.9 69.5133 161.393 69.6667 162.02 69.84C162.807 70.0533 163.447 70.2667 163.94 70.48C164.433 70.68 164.853 70.9867 165.2 71.4C165.56 71.8133 165.747 72.3533 165.76 73.02C165.76 73.62 165.593 74.16 165.26 74.64C164.927 75.12 164.453 75.5 163.84 75.78C163.24 76.0467 162.547 76.18 161.76 76.18Z" fill="white"/>
</svg>
