<svg width="403" height="737" viewBox="0 0 403 737" fill="none" xmlns="http://www.w3.org/2000/svg">
<rect width="65.9112" height="148.3" rx="15" transform="matrix(0.679369 -0.733797 0.679369 0.733797 251.472 354.451)" fill="#8860D0"/>
<rect x="329.045" y="402.7" width="63.3257" height="85.4989" rx="15" fill="#8860D0"/>
<path d="M329.045 462.549H392.371V473.198C392.371 481.483 385.655 488.198 377.371 488.198H344.045C335.761 488.198 329.045 481.483 329.045 473.198V462.549Z" fill="#FF8A00"/>
<rect x="303" y="458" width="100" height="10" fill="white"/>
<rect width="65.9112" height="148.3" rx="15" transform="matrix(0.679369 0.733797 -0.679369 0.733797 114.751 306.086)" fill="#8860D0"/>
<rect x="18.749" y="402.7" width="63.3257" height="85.4989" rx="15" fill="#8860D0"/>
<rect x="249.097" y="566.002" width="23.7471" height="170.998" rx="11.8736" fill="#FF8A00"/>
<rect x="348.835" y="506.153" width="23.7471" height="170.998" rx="11.8736" fill="#FF8A00"/>
<path d="M18.749 462.549H82.0747V473.198C82.0747 481.483 75.359 488.198 67.0747 488.198H33.749C25.4648 488.198 18.749 481.483 18.749 473.198V462.549Z" fill="#FF8A00"/>
<rect y="458" width="100" height="10" fill="white"/>
<ellipse cx="205.56" cy="256.497" rx="118.736" ry="256.497" fill="#8860D0"/>
<path d="M306.523 121.408C306.523 121.408 300.545 98.944 289.519 75.1261C278.494 51.3082 265.404 32.4148 250.999 19.5246C236.593 6.63447 221.153 -1.47236e-06 205.561 0C189.968 1.47236e-06 174.528 6.63448 160.122 19.5246C145.717 32.4148 132.627 51.3082 121.602 75.1261C110.576 98.944 104.599 121.408 104.599 121.408H205.561L306.523 121.408Z" fill="#FF8A00"/>
<ellipse cx="205.56" cy="242.817" rx="59.3679" ry="64.1241" fill="white"/>
<rect x="138.276" y="566.002" width="23.7471" height="170.998" rx="11.8736" fill="#FF8A00"/>
<rect x="38.5391" y="506.153" width="23.7471" height="170.998" rx="11.8736" fill="#FF8A00"/>
<rect x="81.999" y="113.992" width="250" height="15" fill="white"/>
</svg>
