<svg width="250" height="250" viewBox="0 0 250 250" fill="none" xmlns="http://www.w3.org/2000/svg">
<path d="M0 20C0 8.9543 8.9543 0 20 0H230C241.046 0 250 8.9543 250 20V230C250 241.046 241.046 250 230 250H20C8.9543 250 0 241.046 0 230V20Z" fill="#8860D0"/>
<rect x="115.139" y="120.842" width="20" height="73.7353" rx="10" transform="rotate(45 115.139 120.842)" fill="white"/>
<rect x="67" y="63" width="20" height="120" rx="10" fill="white"/>
<rect x="67" y="63" width="120" height="80" rx="10" fill="white"/>
<circle cx="96" cy="103" r="10" fill="#8860D0"/>
<circle cx="127" cy="103" r="10" fill="#8860D0"/>
<circle cx="158" cy="103" r="10" fill="#8860D0"/>
<rect x="77" y="132" width="22" height="24" fill="white"/>
</svg>
