<svg width="250" height="250" viewBox="0 0 250 250" fill="none" xmlns="http://www.w3.org/2000/svg">
<rect x="0.5" y="0.5" width="249" height="249" rx="19.5" fill="white" stroke="#C1C8E4"/>
<path d="M143.75 75V118.75H82.3125L75 126.063V75H143.75ZM150 62.5H68.75C65.3125 62.5 62.5 65.3125 62.5 68.75V156.25L87.5 131.25H150C153.438 131.25 156.25 128.438 156.25 125V68.75C156.25 65.3125 153.438 62.5 150 62.5ZM181.25 87.5H168.75V143.75H87.5V156.25C87.5 159.688 90.3125 162.5 93.75 162.5H162.5L187.5 187.5V93.75C187.5 90.3125 184.688 87.5 181.25 87.5Z" fill="black"/>
</svg>
