<svg width="150" height="150" viewBox="0 0 150 150" fill="none" xmlns="http://www.w3.org/2000/svg">
<rect width="150" height="150" rx="20" fill="#8860D0"/>
<path d="M119.208 104.125L81.375 66.2917C85.25 56.5417 83.25 45.0417 75.375 37.125C65.7916 27.5417 50.875 26.6667 40.25 34.4167L56.25 50.4583L50.3333 56.3333L34.375 40.375C26.625 50.9583 27.5 65.9167 37.0833 75.4583C44.8333 83.2083 56.125 85.25 65.7916 81.625L103.75 119.583C105.375 121.208 108 121.208 109.625 119.583L119.208 110C120.875 108.417 120.875 105.792 119.208 104.125ZM106.708 110.792L67.2916 71.375C64.75 73.25 61.9166 74.375 58.9583 74.7917C53.2916 75.625 47.3333 73.9167 43 69.5833C39.0416 65.6667 37.2083 60.4167 37.5 55.25L50.375 68.125L68.0416 50.4583L55.1666 37.5833C60.3333 37.2917 65.5416 39.125 69.5 43.0417C74 47.5417 75.7083 53.75 74.6666 59.5417C74.1666 62.5 72.9166 65.25 71 67.7084L110.375 107.083L106.708 110.792Z" fill="white"/>
</svg>
